<?xml version="1.0" encoding="utf-8"?>
<!-- Generator: Adobe Illustrator 16.0.3, SVG Export Plug-In . SVG Version: 6.00 Build 0)  -->
<!DOCTYPE svg PUBLIC "-//W3C//DTD SVG 1.1//EN" "http://www.w3.org/Graphics/SVG/1.1/DTD/svg11.dtd">
<svg version="1.1" id="Layer_1" xmlns="http://www.w3.org/2000/svg" xmlns:xlink="http://www.w3.org/1999/xlink" x="0px" y="0px"
	 width="595.276px" height="311px" viewBox="0 0 595.276 311" enable-background="new 0 0 595.276 311" xml:space="preserve">
<g>
	<defs>
		<rect id="SVGID_1_" y="-166.276" width="595.276" height="595.276"/>
	</defs>
	<clipPath id="SVGID_2_">
		<use xlink:href="#SVGID_1_"  overflow="visible"/>
	</clipPath>
	<polygon clip-path="url(#SVGID_2_)" fill="#FFFFFF" points="94.373,220.458 19.636,176.869 19.636,154.989 75.706,187.83 
		75.735,166.321 19.636,133.729 19.636,112.243 75.847,144.556 75.679,123.014 19.636,90.505 19.636,68.097 94.373,112.328 	"/>
	<g clip-path="url(#SVGID_2_)">
		<defs>
			<rect id="SVGID_3_" y="-166.276" width="595.276" height="595.276"/>
		</defs>
		<clipPath id="SVGID_4_">
			<use xlink:href="#SVGID_3_"  overflow="visible"/>
		</clipPath>
		<g opacity="0.78" clip-path="url(#SVGID_4_)">
			<g>
				<defs>
					<rect id="SVGID_5_" x="94.38" y="69.557" width="74.704" height="150.901"/>
				</defs>
				<clipPath id="SVGID_6_">
					<use xlink:href="#SVGID_5_"  overflow="visible"/>
				</clipPath>
				<polygon clip-path="url(#SVGID_6_)" fill="#FFFFFF" points="94.381,112.324 169.083,69.557 169.083,91.088 113.136,123.631 
					113.136,145.229 169.083,112.587 169.083,134.458 113.136,166.659 113.136,209.854 94.381,220.458 				"/>
			</g>
		</g>
		<g opacity="0.78" clip-path="url(#SVGID_4_)">
			<g>
				<defs>
					<rect id="SVGID_7_" x="94.38" y="69.557" width="74.704" height="150.901"/>
				</defs>
				<clipPath id="SVGID_8_">
					<use xlink:href="#SVGID_7_"  overflow="visible"/>
				</clipPath>
				<polygon clip-path="url(#SVGID_8_)" fill="#FFFFFF" points="94.381,112.324 169.083,69.557 169.083,91.088 113.136,123.631 
					113.136,145.229 169.083,112.587 169.083,134.458 113.136,166.659 113.136,209.854 94.381,220.458 				"/>
			</g>
		</g>
	</g>
	<polygon clip-path="url(#SVGID_2_)" fill="#FFFFFF" points="94.373,26.186 150.51,58.137 94.373,91.206 38.275,58.122 	"/>
	<polygon clip-path="url(#SVGID_2_)" fill="#FFFFFF" points="192.043,68.921 243.102,68.921 243.102,83.883 209.454,83.883 
		209.454,93.495 239.926,93.495 239.926,107.368 209.454,107.368 209.454,117.435 243.552,117.435 243.552,132.397 192.043,132.397 
			"/>
	<polygon clip-path="url(#SVGID_2_)" fill="#FFFFFF" points="252.148,68.921 268.973,68.921 295.088,102.474 295.088,68.921 
		312.5,68.921 312.5,132.397 297.089,132.397 269.969,97.576 269.969,132.397 252.148,132.397 	"/>
	<polygon clip-path="url(#SVGID_2_)" fill="#FFFFFF" points="323.782,68.921 374.84,68.921 374.84,83.883 341.192,83.883 
		341.192,93.495 371.665,93.495 371.665,107.368 341.192,107.368 341.192,117.435 375.29,117.435 375.29,132.397 323.782,132.397 	
		"/>
	<g clip-path="url(#SVGID_2_)">
		<defs>
			<rect id="SVGID_9_" y="-166.276" width="595.276" height="595.276"/>
		</defs>
		<clipPath id="SVGID_10_">
			<use xlink:href="#SVGID_9_"  overflow="visible"/>
		</clipPath>
		<path clip-path="url(#SVGID_10_)" fill="#FFFFFF" d="M384.298,68.921h30.021c9.702,0,16.407,2.538,20.675,6.891
			c3.714,3.627,5.619,8.524,5.619,14.78v0.183c0,9.702-5.17,16.14-13.055,19.495l15.145,22.127h-20.313l-12.789-19.226h-0.185
			h-7.523v19.226h-17.596V68.921z M413.501,99.39c5.987,0,9.429-2.902,9.429-7.527v-0.182c0-4.987-3.626-7.527-9.518-7.527h-11.519
			V99.39H413.501z"/>
		<path clip-path="url(#SVGID_10_)" fill="#FFFFFF" d="M446.301,100.841v-0.184c0-18.497,14.509-33.005,34.187-33.005
			c11.149,0,19.042,3.444,25.753,9.248l-10.336,12.424c-4.541-3.81-9.074-5.986-15.329-5.986c-9.155,0-16.229,7.708-16.229,17.41
			v0.183c0,10.247,7.162,17.592,17.225,17.592c4.262,0,7.525-0.907,10.161-2.631v-7.706h-12.515V95.31h29.193v28.563
			c-6.703,5.532-16.045,9.793-27.563,9.793C461.083,133.666,446.301,120.064,446.301,100.841"/>
		<polygon clip-path="url(#SVGID_10_)" fill="#FFFFFF" points="533.834,108.638 509.712,68.921 529.758,68.921 542.813,92.043 
			555.963,68.921 575.641,68.921 551.518,108.367 551.518,132.397 533.834,132.397 		"/>
		<polygon clip-path="url(#SVGID_10_)" fill="#FFFFFF" points="192.043,147.937 242.828,147.937 242.828,163.352 209.639,163.352 
			209.639,174.143 239.653,174.143 239.653,188.742 209.639,188.742 209.639,211.411 192.043,211.411 		"/>
		<path clip-path="url(#SVGID_10_)" fill="#FFFFFF" d="M252.148,183.573v-60.029h17.861v59.666c0,9.159,4.629,13.511,11.703,13.511
			c7.074,0,11.696-4.171,11.696-13.057v-35.729h17.861v35.184c0,20.493-11.696,29.472-29.741,29.472
			C263.482,212.591,252.148,203.431,252.148,183.573"/>
		<polygon clip-path="url(#SVGID_10_)" fill="#FFFFFF" points="337.245,163.352 318.195,163.352 318.195,147.937 373.875,147.937 
			373.875,163.352 354.833,163.352 354.833,211.411 337.245,211.411 		"/>
		<path clip-path="url(#SVGID_10_)" fill="#FFFFFF" d="M380.801,183.573v-35.638h17.86v35.274c0,9.159,4.63,13.511,11.703,13.511
			c7.074,0,11.696-4.171,11.696-13.057v-35.729h17.861v35.184c0,20.493-11.696,29.472-29.741,29.472
			C392.135,212.591,380.801,203.431,380.801,183.573"/>
		<path clip-path="url(#SVGID_10_)" fill="#FFFFFF" d="M449.323,147.936h30.021c9.701,0,16.407,2.538,20.675,6.892
			c3.714,3.627,5.619,8.523,5.619,14.78v0.183c0,9.702-5.17,16.14-13.055,19.494l15.144,22.127h-20.313l-12.788-19.226h-0.185
			h-7.523v19.226h-17.596V147.936z M478.525,178.405c5.988,0,9.429-2.902,9.429-7.528v-0.181c0-4.987-3.625-7.527-9.517-7.527
			h-11.519v15.236H478.525z"/>
		<path clip-path="url(#SVGID_10_)" fill="#FFFFFF" d="M211.695,231.903c-1.229-1.06-2.484-1.843-3.769-2.35
			c-1.284-0.506-2.637-0.759-4.056-0.759c-3.198,0-5.798,1.013-7.797,3.041c-2,2.027-2.999,4.669-2.999,7.924
			c0,1.634,0.245,3.104,0.734,4.411c0.491,1.306,1.237,2.466,2.24,3.48c0.991,0.99,2.126,1.747,3.404,2.265s2.651,0.777,4.115,0.777
			c1.42,0,2.804-0.242,4.156-0.728c1.351-0.483,2.629-1.2,3.835-2.146v2.637c-1.216,0.743-2.503,1.314-3.859,1.715
			c-1.359,0.399-2.702,0.6-4.032,0.6c-1.79,0-3.502-0.321-5.136-0.964c-1.634-0.642-3.035-1.543-4.207-2.704
			c-1.206-1.192-2.118-2.578-2.737-4.155c-0.621-1.577-0.93-3.307-0.93-5.188c0-1.847,0.318-3.57,0.955-5.17
			c0.636-1.599,1.552-2.979,2.745-4.14c1.16-1.138,2.561-2.027,4.199-2.67c1.64-0.643,3.344-0.963,5.111-0.963
			c1.579,0,3.039,0.217,4.385,0.649c1.347,0.436,2.572,1.085,3.676,1.953L211.695,231.903z"/>
		<path clip-path="url(#SVGID_10_)" fill="#FFFFFF" d="M241.872,239.793c0,1.747-0.332,3.405-0.997,4.978
			c-0.665,1.571-1.624,2.971-2.875,4.199c-1.274,1.238-2.711,2.183-4.312,2.83c-1.6,0.647-3.292,0.972-5.072,0.972
			c-1.78,0-3.469-0.324-5.063-0.972c-1.595-0.647-3.024-1.592-4.287-2.83c-1.262-1.25-2.223-2.655-2.882-4.216
			c-0.661-1.561-0.99-3.214-0.99-4.961c0-1.767,0.329-3.438,0.99-5.01c0.659-1.57,1.62-2.981,2.882-4.231
			c1.24-1.229,2.654-2.157,4.245-2.788c1.588-0.631,3.291-0.946,5.105-0.946c1.826,0,3.536,0.318,5.132,0.955
			c1.595,0.636,3.012,1.562,4.252,2.779c1.262,1.25,2.222,2.661,2.883,4.231C241.543,236.355,241.872,238.026,241.872,239.793
			 M228.616,250.761c1.466,0,2.852-0.271,4.16-0.813c1.309-0.54,2.486-1.329,3.534-2.365c1.026-1.048,1.812-2.238,2.359-3.572
			c0.547-1.335,0.82-2.74,0.82-4.218c0-1.485-0.269-2.891-0.811-4.215c-0.541-1.323-1.331-2.515-2.368-3.573
			c-1.025-1.036-2.196-1.825-3.508-2.365c-1.314-0.541-2.708-0.813-4.186-0.813c-1.466,0-2.847,0.271-4.143,0.813
			c-1.296,0.54-2.469,1.329-3.517,2.365c-1.037,1.069-1.826,2.262-2.367,3.573c-0.542,1.313-0.813,2.719-0.813,4.215
			c0,1.488,0.271,2.894,0.813,4.218c0.541,1.322,1.33,2.515,2.367,3.572c1.037,1.049,2.198,1.84,3.483,2.374
			C225.724,250.492,227.117,250.761,228.616,250.761"/>
		<path clip-path="url(#SVGID_10_)" fill="#FFFFFF" d="M244.947,247.956l1.926-1.031c0.36,1.217,0.983,2.16,1.868,2.83
			c0.884,0.671,1.945,1.006,3.185,1.006c1.565,0,2.788-0.462,3.666-1.386c0.879-0.923,1.319-2.202,1.319-3.835
			c0-1.194-0.297-2.187-0.888-2.976c-0.592-0.788-1.861-1.701-3.81-2.736c-2.49-1.317-4.146-2.478-4.968-3.48
			c-0.822-1.003-1.234-2.208-1.234-3.617c0-1.756,0.595-3.187,1.783-4.292c1.189-1.103,2.729-1.654,4.622-1.654
			c1.239,0,2.317,0.262,3.235,0.784c0.919,0.524,1.664,1.311,2.239,2.358l-1.74,1.048c-0.361-0.71-0.87-1.251-1.53-1.623
			c-0.658-0.372-1.439-0.557-2.34-0.557c-1.216,0-2.186,0.356-2.905,1.072c-0.721,0.716-1.081,1.682-1.081,2.898
			c0,1.734,1.429,3.352,4.291,4.848c0.517,0.271,0.913,0.48,1.182,0.626c2.107,1.16,3.516,2.257,4.225,3.286
			c0.71,1.031,1.064,2.368,1.064,4.015c0,2.219-0.647,3.978-1.943,5.279c-1.295,1.302-3.059,1.951-5.288,1.951
			c-1.623,0-3.012-0.402-4.166-1.208C246.505,250.758,245.6,249.556,244.947,247.956"/>
		<polygon clip-path="url(#SVGID_10_)" fill="#FFFFFF" points="264.075,252.112 264.075,227.375 276.325,227.375 276.325,229.487 
			266.321,229.487 266.321,237.226 276.325,237.226 276.325,239.338 266.321,239.338 266.321,250 276.325,250 276.325,252.112 		"/>
		<path clip-path="url(#SVGID_10_)" fill="#FFFFFF" d="M301.705,231.903c-1.229-1.06-2.484-1.843-3.77-2.35
			c-1.284-0.506-2.636-0.759-4.055-0.759c-3.198,0-5.799,1.013-7.798,3.041c-1.999,2.027-2.999,4.669-2.999,7.924
			c0,1.634,0.245,3.104,0.734,4.411c0.491,1.306,1.238,2.466,2.241,3.48c0.991,0.99,2.125,1.747,3.404,2.265
			c1.278,0.518,2.649,0.777,4.114,0.777c1.42,0,2.805-0.242,4.156-0.728c1.353-0.483,2.631-1.2,3.837-2.146v2.637
			c-1.217,0.743-2.505,1.314-3.86,1.715c-1.358,0.399-2.702,0.6-4.031,0.6c-1.791,0-3.503-0.321-5.136-0.964
			c-1.634-0.642-3.036-1.543-4.208-2.704c-1.205-1.192-2.118-2.578-2.737-4.155c-0.62-1.577-0.929-3.307-0.929-5.188
			c0-1.847,0.317-3.57,0.954-5.17c0.637-1.599,1.552-2.979,2.746-4.14c1.159-1.138,2.561-2.027,4.199-2.67
			c1.639-0.643,3.343-0.963,5.111-0.963c1.578,0,3.039,0.217,4.384,0.649c1.348,0.436,2.572,1.085,3.677,1.953L301.705,231.903z"/>
		<polygon clip-path="url(#SVGID_10_)" fill="#FFFFFF" points="306.571,252.112 306.571,227.375 308.818,227.375 308.818,237.412 
			322.285,237.412 322.285,227.375 324.532,227.375 324.532,252.112 322.285,252.112 322.285,239.338 308.818,239.338 
			308.818,252.112 		"/>
		<path clip-path="url(#SVGID_10_)" fill="#FFFFFF" d="M327.304,252.112l10.865-25.717l10.408,25.717h-2.45l-3.159-8.381h-10.104
			l-3.279,8.381H327.304z M333.623,241.806h8.617l-4.224-10.765L333.623,241.806z"/>
		<polygon clip-path="url(#SVGID_10_)" fill="#FFFFFF" points="351.348,252.112 351.348,226.327 368.868,247.026 368.868,227.375 
			370.965,227.375 370.965,252.839 353.46,232.106 353.46,252.112 		"/>
		<path clip-path="url(#SVGID_10_)" fill="#FFFFFF" d="M377.134,252.111v-24.736h3.852c3.437,0,5.874,0.169,7.317,0.507
			c1.441,0.338,2.681,0.918,3.718,1.74c1.373,1.093,2.422,2.501,3.143,4.225c0.72,1.723,1.081,3.695,1.081,5.914
			c0,2.22-0.361,4.192-1.081,5.922c-0.721,1.729-1.759,3.112-3.109,4.148c-1.07,0.821-2.293,1.407-3.666,1.758
			c-1.375,0.349-3.589,0.522-6.642,0.522h-0.761H377.134z M379.381,250.169h3.16c2.557,0,4.37-0.145,5.44-0.432
			s1.978-0.773,2.72-1.461c1.036-0.969,1.819-2.174,2.35-3.616c0.529-1.441,0.794-3.087,0.794-4.934
			c0-1.892-0.268-3.559-0.803-5.001s-1.326-2.625-2.374-3.549c-0.789-0.709-1.751-1.21-2.891-1.504
			c-1.137-0.293-3.125-0.439-5.964-0.439h-0.422h-2.011V250.169z"/>
		<path clip-path="url(#SVGID_10_)" fill="#FFFFFF" d="M426.558,239.793c0,1.747-0.333,3.405-0.998,4.978
			c-0.665,1.571-1.623,2.971-2.875,4.199c-1.273,1.238-2.71,2.183-4.311,2.83s-3.292,0.972-5.073,0.972
			c-1.78,0-3.469-0.324-5.063-0.972c-1.596-0.647-3.024-1.592-4.288-2.83c-1.262-1.25-2.222-2.655-2.882-4.216
			s-0.99-3.214-0.99-4.961c0-1.767,0.33-3.438,0.99-5.01c0.66-1.57,1.62-2.981,2.882-4.231c1.241-1.229,2.655-2.157,4.245-2.788
			c1.588-0.631,3.291-0.946,5.105-0.946c1.826,0,3.537,0.318,5.132,0.955c1.596,0.636,3.013,1.562,4.252,2.779
			c1.263,1.25,2.223,2.661,2.884,4.231C426.228,236.355,426.558,238.026,426.558,239.793 M413.301,250.761
			c1.466,0,2.853-0.271,4.16-0.813c1.309-0.54,2.485-1.329,3.533-2.365c1.027-1.048,1.813-2.238,2.36-3.572
			c0.547-1.335,0.82-2.74,0.82-4.218c0-1.485-0.271-2.891-0.813-4.215c-0.541-1.323-1.331-2.515-2.368-3.573
			c-1.024-1.036-2.194-1.825-3.507-2.365c-1.313-0.541-2.709-0.813-4.187-0.813c-1.466,0-2.848,0.271-4.144,0.813
			c-1.296,0.54-2.468,1.329-3.517,2.365c-1.037,1.069-1.826,2.262-2.367,3.573c-0.541,1.313-0.812,2.719-0.812,4.215
			c0,1.488,0.271,2.894,0.812,4.218c0.541,1.322,1.33,2.515,2.367,3.572c1.037,1.049,2.198,1.84,3.483,2.374
			C410.409,250.492,411.802,250.761,413.301,250.761"/>
		<polygon clip-path="url(#SVGID_10_)" fill="#FFFFFF" points="441.494,252.112 441.494,227.375 453.744,227.375 453.744,229.487 
			443.741,229.487 443.741,237.226 453.744,237.226 453.744,239.338 443.741,239.338 443.741,250 453.744,250 453.744,252.112 		"/>
		<polygon clip-path="url(#SVGID_10_)" fill="#FFFFFF" points="459.253,252.112 459.253,226.327 476.774,247.026 476.774,227.375 
			478.87,227.375 478.87,252.839 461.365,232.106 461.365,252.112 		"/>
		<polygon clip-path="url(#SVGID_10_)" fill="#FFFFFF" points="485.038,252.112 485.038,227.375 497.288,227.375 497.288,229.487 
			487.285,229.487 487.285,237.226 497.288,237.226 497.288,239.338 487.285,239.338 487.285,250 497.288,250 497.288,252.112 		"/>
		<path clip-path="url(#SVGID_10_)" fill="#FFFFFF" d="M517.816,252.111h-2.736l-8.686-11.794h-1.352v11.794h-2.247v-24.736h4.546
			c2.68,0,4.687,0.558,6.023,1.673c1.335,1.114,2.002,2.805,2.002,5.068c0,1.927-0.571,3.442-1.716,4.545
			c-1.143,1.105-2.717,1.656-4.722,1.656L517.816,252.111z M505.043,229.335v9.142h2.265c2.094,0,3.556-0.335,4.384-1.005
			c0.828-0.671,1.242-1.813,1.242-3.422c0-1.701-0.428-2.912-1.285-3.633c-0.854-0.722-2.303-1.082-4.341-1.082H505.043z"/>
		<path clip-path="url(#SVGID_10_)" fill="#FFFFFF" d="M541.339,233.593c-1.003-1.555-2.236-2.73-3.7-3.531
			c-1.465-0.799-3.115-1.199-4.951-1.199c-3.064,0-5.559,1.036-7.486,3.109c-1.925,2.072-2.889,4.759-2.889,8.059
			c0,1.477,0.255,2.868,0.769,4.174c0.513,1.308,1.259,2.468,2.238,3.481c0.992,1.003,2.102,1.755,3.33,2.256
			c1.228,0.501,2.574,0.752,4.038,0.752c2.771,0,5.026-0.816,6.767-2.451c1.739-1.632,2.634-3.768,2.679-6.403H533.6v-1.943h11v0.27
			c0,3.944-1.075,7.03-3.227,9.261c-2.151,2.229-5.114,3.346-8.889,3.346c-3.751,0-6.787-1.194-9.106-3.582
			c-2.321-2.388-3.481-5.52-3.481-9.396c0-1.779,0.293-3.46,0.878-5.043c0.586-1.583,1.431-2.961,2.535-4.133
			c1.194-1.271,2.543-2.224,4.047-2.854c1.503-0.631,3.179-0.946,5.027-0.946c2.512,0,4.663,0.454,6.454,1.36
			c1.791,0.907,3.171,2.238,4.14,3.996L541.339,233.593z"/>
		<path clip-path="url(#SVGID_10_)" fill="#FFFFFF" d="M548.232,224.942l3.6-5.914h2.77l-4.78,5.914H548.232z M549.331,227.375
			h2.247v24.737h-2.247V227.375z"/>
		<path clip-path="url(#SVGID_10_)" fill="#FFFFFF" d="M554.365,252.112l10.865-25.717l10.409,25.717h-2.45l-3.159-8.381h-10.105
			l-3.278,8.381H554.365z M560.686,241.806h8.617l-4.224-10.765L560.686,241.806z"/>
	</g>
</g>
</svg>
