<?xml version="1.0" encoding="utf-8"?>
<!-- Generator: Adobe Illustrator 16.0.3, SVG Export Plug-In . SVG Version: 6.00 Build 0)  -->
<!DOCTYPE svg PUBLIC "-//W3C//DTD SVG 1.1//EN" "http://www.w3.org/Graphics/SVG/1.1/DTD/svg11.dtd">
<svg version="1.1" id="Layer_1" xmlns="http://www.w3.org/2000/svg" xmlns:xlink="http://www.w3.org/1999/xlink" x="0px" y="0px"
	 width="595.276px" height="216px" viewBox="0 0 595.276 216" enable-background="new 0 0 595.276 216" xml:space="preserve">
<g>
	<defs>
		<rect id="SVGID_1_" y="-185.276" width="595.276" height="595.276"/>
	</defs>
	<clipPath id="SVGID_2_">
		<use xlink:href="#SVGID_1_"  overflow="visible"/>
	</clipPath>
	<polygon clip-path="url(#SVGID_2_)" fill="#FFFFFF" points="42.94,142.066 10.077,122.9 10.077,113.28 34.732,127.72 
		34.745,118.263 10.077,103.931 10.077,94.484 34.794,108.692 34.719,99.22 10.077,84.925 10.077,75.072 42.94,94.521 	"/>
	<g clip-path="url(#SVGID_2_)">
		<defs>
			<rect id="SVGID_3_" y="-185.276" width="595.276" height="595.276"/>
		</defs>
		<clipPath id="SVGID_4_">
			<use xlink:href="#SVGID_3_"  overflow="visible"/>
		</clipPath>
		<g opacity="0.78" clip-path="url(#SVGID_4_)">
			<g>
				<defs>
					<rect id="SVGID_5_" x="42.943" y="75.715" width="32.848" height="66.353"/>
				</defs>
				<clipPath id="SVGID_6_">
					<use xlink:href="#SVGID_5_"  overflow="visible"/>
				</clipPath>
				<polygon clip-path="url(#SVGID_6_)" fill="#FFFFFF" points="42.943,94.519 75.791,75.714 75.791,85.181 51.19,99.492 
					51.19,108.988 75.791,94.635 75.791,104.252 51.19,118.411 51.19,137.405 42.943,142.066 				"/>
			</g>
		</g>
	</g>
	<polygon clip-path="url(#SVGID_2_)" fill="#FFFFFF" points="42.94,56.644 67.625,70.693 42.94,85.234 18.273,70.686 	"/>
	<polygon clip-path="url(#SVGID_2_)" fill="#FFFFFF" points="136.97,118.426 104.107,99.259 104.107,89.639 128.762,104.079 
		128.774,94.622 104.107,80.29 104.107,70.843 128.824,85.051 128.75,75.578 104.107,61.284 104.107,51.431 136.97,70.88 	"/>
	<g clip-path="url(#SVGID_2_)">
		<defs>
			<rect id="SVGID_7_" y="-185.276" width="595.276" height="595.276"/>
		</defs>
		<clipPath id="SVGID_8_">
			<use xlink:href="#SVGID_7_"  overflow="visible"/>
		</clipPath>
		<g opacity="0.78" clip-path="url(#SVGID_8_)">
			<g>
				<defs>
					<rect id="SVGID_9_" x="136.973" y="52.074" width="32.848" height="66.352"/>
				</defs>
				<clipPath id="SVGID_10_">
					<use xlink:href="#SVGID_9_"  overflow="visible"/>
				</clipPath>
				<polygon clip-path="url(#SVGID_10_)" fill="#FFFFFF" points="136.974,70.878 169.821,52.073 169.821,61.54 145.22,75.85 
					145.22,85.347 169.821,70.994 169.821,80.61 145.22,94.77 145.22,113.765 136.974,118.426 				"/>
			</g>
		</g>
	</g>
	<polygon clip-path="url(#SVGID_2_)" fill="#FFFFFF" points="136.97,33.003 161.655,47.052 136.97,61.592 112.303,47.045 	"/>
	<polygon clip-path="url(#SVGID_2_)" fill="#FFFFFF" points="94.32,190.928 61.457,171.762 61.457,162.142 86.112,176.581 
		86.125,167.124 61.457,152.792 61.457,143.345 86.174,157.553 86.099,148.081 61.457,133.786 61.457,123.933 94.32,143.382 	"/>
	<g clip-path="url(#SVGID_2_)">
		<defs>
			<rect id="SVGID_11_" y="-185.276" width="595.276" height="595.276"/>
		</defs>
		<clipPath id="SVGID_12_">
			<use xlink:href="#SVGID_11_"  overflow="visible"/>
		</clipPath>
		<g opacity="0.78" clip-path="url(#SVGID_12_)">
			<g>
				<defs>
					<rect id="SVGID_13_" x="94.323" y="124.576" width="32.848" height="66.352"/>
				</defs>
				<clipPath id="SVGID_14_">
					<use xlink:href="#SVGID_13_"  overflow="visible"/>
				</clipPath>
				<polygon clip-path="url(#SVGID_14_)" fill="#FFFFFF" points="94.323,143.38 127.171,124.575 127.171,134.042 102.57,148.354 
					102.57,157.85 127.171,143.496 127.171,153.113 102.57,167.272 102.57,186.267 94.323,190.928 				"/>
			</g>
		</g>
	</g>
	<polygon clip-path="url(#SVGID_2_)" fill="#FFFFFF" points="94.32,105.505 119.004,119.555 94.32,134.096 69.653,119.547 	"/>
	<g clip-path="url(#SVGID_2_)">
		<defs>
			<rect id="SVGID_15_" y="-185.276" width="595.276" height="595.276"/>
		</defs>
		<clipPath id="SVGID_16_">
			<use xlink:href="#SVGID_15_"  overflow="visible"/>
		</clipPath>
		<path clip-path="url(#SVGID_16_)" fill="#FFFFFF" d="M163.807,114.383v-0.113c0-11.556,8.893-20.619,20.901-20.619
			c8.101,0,13.312,3.398,16.824,8.27l-8.27,6.4c-2.266-2.832-4.871-4.644-8.667-4.644c-5.551,0-9.46,4.701-9.46,10.479v0.113
			c0,5.947,3.909,10.593,9.46,10.593c4.135,0,6.57-1.926,8.95-4.815l8.271,5.892c-3.739,5.153-8.78,8.949-17.56,8.949
			C172.926,134.888,163.807,126.222,163.807,114.383"/>
		<path clip-path="url(#SVGID_16_)" fill="#FFFFFF" d="M204.021,114.383v-0.113c0-11.385,9.177-20.619,21.412-20.619
			c12.234,0,21.298,9.119,21.298,20.505v0.113c0,11.385-9.177,20.618-21.412,20.618
			C213.083,134.888,204.021,125.769,204.021,114.383 M235.515,114.383v-0.113c0-5.722-4.135-10.707-10.196-10.707
			c-6.004,0-10.026,4.872-10.026,10.593v0.113c0,5.721,4.135,10.705,10.14,10.705C231.494,124.975,235.515,120.104,235.515,114.383"
			/>
		<path clip-path="url(#SVGID_16_)" fill="#FFFFFF" d="M249.161,128.203l6.117-7.308c3.909,3.117,8.271,4.759,12.859,4.759
			c2.945,0,4.531-1.019,4.531-2.719v-0.113c0-1.642-1.302-2.549-6.684-3.796c-8.44-1.926-14.953-4.303-14.953-12.461v-0.113
			c0-7.363,5.834-12.688,15.35-12.688c6.741,0,12.009,1.812,16.314,5.267l-5.495,7.76c-3.626-2.548-7.591-3.907-11.102-3.907
			c-2.663,0-3.965,1.132-3.965,2.548v0.114c0,1.812,1.359,2.605,6.853,3.851c9.12,1.983,14.784,4.928,14.784,12.349v0.112
			c0,8.101-6.401,12.916-16.03,12.916C260.717,134.774,254.032,132.564,249.161,128.203"/>
		<polygon clip-path="url(#SVGID_16_)" fill="#FFFFFF" points="289.091,94.443 320.981,94.443 320.981,103.791 299.967,103.791 
			299.967,109.794 318.999,109.794 318.999,118.461 299.967,118.461 299.967,124.749 321.265,124.749 321.265,134.094 
			289.091,134.094 		"/>
		<path clip-path="url(#SVGID_16_)" fill="#FFFFFF" d="M325.227,114.383v-0.113c0-11.556,8.893-20.619,20.9-20.619
			c8.102,0,13.313,3.398,16.824,8.27l-8.271,6.4c-2.267-2.832-4.871-4.644-8.666-4.644c-5.551,0-9.46,4.701-9.46,10.479v0.113
			c0,5.947,3.909,10.593,9.46,10.593c4.135,0,6.569-1.926,8.95-4.815l8.271,5.892c-3.739,5.153-8.78,8.949-17.561,8.949
			C334.346,134.888,325.227,126.222,325.227,114.383"/>
		<polygon clip-path="url(#SVGID_16_)" fill="#FFFFFF" points="367.931,94.443 378.92,94.443 378.92,109.285 393.024,109.285 
			393.024,94.443 404.013,94.443 404.013,134.094 393.024,134.094 393.024,119.026 378.92,119.026 378.92,134.094 367.931,134.094 
					"/>
		<path clip-path="url(#SVGID_16_)" fill="#FFFFFF" d="M424.74,94.16h10.592l16.881,39.934h-11.782l-2.889-7.079h-15.294
			l-2.832,7.079h-11.557L424.74,94.16z M434.369,118.46l-4.418-11.271l-4.476,11.271H434.369z"/>
		<polygon clip-path="url(#SVGID_16_)" fill="#FFFFFF" points="456.06,94.443 466.312,94.443 482.624,115.401 482.624,94.443 
			493.5,94.443 493.5,134.094 483.871,134.094 466.936,112.343 466.936,134.094 456.06,134.094 		"/>
		<path clip-path="url(#SVGID_16_)" fill="#FFFFFF" d="M500.521,94.444h15.293c14.161,0,22.375,8.156,22.375,19.598v0.115
			c0,11.44-8.326,19.937-22.601,19.937h-15.067V94.444z M515.984,124.352c6.569,0,10.932-3.626,10.932-10.025v-0.114
			c0-6.343-4.362-10.025-10.932-10.025h-4.477v20.165H515.984z"/>
		<path clip-path="url(#SVGID_16_)" fill="#FFFFFF" d="M542.488,114.383v-0.113c0-11.385,9.177-20.619,21.412-20.619
			c12.233,0,21.298,9.119,21.298,20.505v0.113c0,11.385-9.177,20.618-21.412,20.618S542.488,125.769,542.488,114.383
			 M573.983,114.383v-0.113c0-5.722-4.136-10.707-10.197-10.707c-6.003,0-10.026,4.872-10.026,10.593v0.113
			c0,5.721,4.136,10.705,10.141,10.705C569.961,124.975,573.983,120.104,573.983,114.383"/>
		<polygon clip-path="url(#SVGID_16_)" fill="#FFFFFF" points="140.482,151.277 172.372,151.277 172.372,160.624 151.357,160.624 
			151.357,166.629 170.39,166.629 170.39,175.295 151.357,175.295 151.357,181.582 172.656,181.582 172.656,190.928 
			140.482,190.928 		"/>
		<polygon clip-path="url(#SVGID_16_)" fill="#FFFFFF" points="178.26,151.277 188.512,151.277 204.825,172.235 204.825,151.277 
			215.701,151.277 215.701,190.928 206.072,190.928 189.136,169.177 189.136,190.928 178.26,190.928 		"/>
		<polygon clip-path="url(#SVGID_16_)" fill="#FFFFFF" points="222.72,151.277 254.609,151.277 254.609,160.624 233.596,160.624 
			233.596,166.629 252.627,166.629 252.627,175.295 233.596,175.295 233.596,181.582 254.894,181.582 254.894,190.928 
			222.72,190.928 		"/>
		<path clip-path="url(#SVGID_16_)" fill="#FFFFFF" d="M260.497,151.277h18.749c6.061,0,10.253,1.587,12.915,4.304
			c2.322,2.267,3.512,5.327,3.512,9.233v0.114c0,6.062-3.229,10.083-8.157,12.179l9.459,13.82h-12.687l-7.988-12.009h-0.113h-4.701
			v12.009h-10.989V151.277z M278.736,170.31c3.738,0,5.891-1.812,5.891-4.701v-0.112c0-3.117-2.266-4.703-5.948-4.703h-7.193v9.517
			H278.736z"/>
		<path clip-path="url(#SVGID_16_)" fill="#FFFFFF" d="M299.86,171.216v-0.112c0-11.557,9.063-20.619,21.354-20.619
			c6.968,0,11.896,2.152,16.087,5.777l-6.457,7.761c-2.833-2.378-5.664-3.739-9.572-3.739c-5.723,0-10.14,4.815-10.14,10.876v0.114
			c0,6.4,4.476,10.988,10.763,10.988c2.662,0,4.701-0.566,6.345-1.644v-4.813h-7.817v-8.044h18.239v17.844
			c-4.192,3.455-10.026,6.116-17.219,6.116C309.092,191.721,299.86,183.225,299.86,171.216"/>
		<path clip-path="url(#SVGID_16_)" fill="#FFFFFF" d="M345,151.278h11.047v39.649H345V151.278z M352.081,138.136l10.025,3.229
			l-8.326,7.25h-7.591L352.081,138.136z"/>
		<path clip-path="url(#SVGID_16_)" fill="#FFFFFF" d="M377.003,150.994h10.592l16.881,39.934h-11.782l-2.889-7.079H374.51
			l-2.832,7.079h-11.556L377.003,150.994z M386.632,175.294l-4.419-11.271l-4.475,11.271H386.632z"/>
	</g>
</g>
</svg>
